<mxfile host="app.diagrams.net" modified="2022-05-06T15:50:21.068Z" agent="5.0 (Windows NT 10.0; Win64; x64) AppleWebKit/537.36 (KHTML, like Gecko) Chrome/101.0.4951.54 Safari/537.36" etag="U2T3ZR7pO0dL0X-T_8x0" version="18.0.1" type="github">
  <diagram name="Page-1" id="38b20595-45e3-9b7f-d5ca-b57f44c5b66d">
    <mxGraphModel dx="2893" dy="1500" grid="1" gridSize="10" guides="1" tooltips="1" connect="1" arrows="1" fold="1" page="1" pageScale="1" pageWidth="1100" pageHeight="850" background="none" math="0" shadow="0">
      <root>
        <mxCell id="0" />
        <mxCell id="1" parent="0" />
        <mxCell id="48ef80bc37b76060-127" value="" style="verticalLabelPosition=bottom;html=1;verticalAlign=top;align=center;strokeWidth=1;shape=mxgraph.floorplan.wallCorner;fillColor=#000000;rounded=0;shadow=0;comic=0;fontFamily=Verdana;fontSize=12;" parent="1" vertex="1">
          <mxGeometry x="33.5" y="235.75" width="103" height="1180" as="geometry" />
        </mxCell>
        <mxCell id="48ef80bc37b76060-128" value="" style="verticalLabelPosition=bottom;html=1;verticalAlign=top;align=center;strokeWidth=1;shape=mxgraph.floorplan.wallU;fillColor=#000000;rounded=0;shadow=0;comic=0;fontFamily=Verdana;fontSize=12;rotation=90;" parent="1" vertex="1">
          <mxGeometry x="1203.75" y="-925" width="1181.5" height="3506" as="geometry" />
        </mxCell>
        <mxCell id="1xs2wTyu8J6TD5JoGst9-4" value="" style="verticalLabelPosition=bottom;html=1;verticalAlign=top;align=center;shape=mxgraph.floorplan.room;fillColor=#000000;" vertex="1" parent="1">
          <mxGeometry x="30" y="245.75" width="413.5" height="570" as="geometry" />
        </mxCell>
        <mxCell id="1xs2wTyu8J6TD5JoGst9-5" value="" style="verticalLabelPosition=bottom;html=1;verticalAlign=top;align=center;shape=mxgraph.floorplan.room;fillColor=#000000;strokeWidth=1;" vertex="1" parent="1">
          <mxGeometry x="453.5" y="1115.75" width="270" height="300" as="geometry" />
        </mxCell>
        <mxCell id="1xs2wTyu8J6TD5JoGst9-7" value="" style="verticalLabelPosition=bottom;html=1;verticalAlign=top;align=center;shape=mxgraph.floorplan.doorRight;aspect=fixed;" vertex="1" parent="1">
          <mxGeometry x="453.5" y="1115.75" width="56.47" height="60" as="geometry" />
        </mxCell>
        <mxCell id="1xs2wTyu8J6TD5JoGst9-9" value="" style="verticalLabelPosition=bottom;html=1;verticalAlign=top;align=center;shape=mxgraph.floorplan.room;fillColor=#000000;strokeWidth=1;" vertex="1" parent="1">
          <mxGeometry x="33.5" y="1005.75" width="210" height="410" as="geometry" />
        </mxCell>
        <mxCell id="1xs2wTyu8J6TD5JoGst9-10" value="" style="verticalLabelPosition=bottom;html=1;verticalAlign=top;align=center;shape=mxgraph.floorplan.wall;fillColor=#000000;direction=south;strokeWidth=1;" vertex="1" parent="1">
          <mxGeometry x="136.5" y="1095.75" width="10" height="310" as="geometry" />
        </mxCell>
        <mxCell id="1xs2wTyu8J6TD5JoGst9-11" value="" style="verticalLabelPosition=bottom;html=1;verticalAlign=top;align=center;shape=mxgraph.floorplan.doorDouble;aspect=fixed;strokeWidth=1;rotation=90;" vertex="1" parent="1">
          <mxGeometry x="197.76" y="1035.75" width="56.47" height="30" as="geometry" />
        </mxCell>
        <mxCell id="1xs2wTyu8J6TD5JoGst9-14" value="" style="verticalLabelPosition=bottom;html=1;verticalAlign=top;align=center;shape=mxgraph.floorplan.wall;fillColor=#000000;strokeWidth=1;" vertex="1" parent="1">
          <mxGeometry x="46.5" y="1095.75" width="100" height="10" as="geometry" />
        </mxCell>
        <mxCell id="1xs2wTyu8J6TD5JoGst9-16" value="" style="verticalLabelPosition=bottom;html=1;verticalAlign=top;align=center;shape=mxgraph.floorplan.wall;fillColor=#000000;strokeWidth=1;" vertex="1" parent="1">
          <mxGeometry x="143.5" y="1095.75" width="100" height="10" as="geometry" />
        </mxCell>
        <mxCell id="1xs2wTyu8J6TD5JoGst9-17" value="" style="verticalLabelPosition=bottom;html=1;verticalAlign=top;align=center;shape=mxgraph.floorplan.doorLeft;aspect=fixed;strokeWidth=1;" vertex="1" parent="1">
          <mxGeometry x="86.5" y="1095.75" width="50" height="53.13" as="geometry" />
        </mxCell>
        <mxCell id="1xs2wTyu8J6TD5JoGst9-18" value="" style="verticalLabelPosition=bottom;html=1;verticalAlign=top;align=center;shape=mxgraph.floorplan.doorLeft;aspect=fixed;strokeWidth=1;" vertex="1" parent="1">
          <mxGeometry x="183.5" y="1095.75" width="50" height="53.13" as="geometry" />
        </mxCell>
        <mxCell id="1xs2wTyu8J6TD5JoGst9-19" value="" style="verticalLabelPosition=bottom;html=1;verticalAlign=top;align=center;shape=mxgraph.floorplan.wall;fillColor=#000000;strokeWidth=1;" vertex="1" parent="1">
          <mxGeometry x="143.5" y="1215.75" width="47" height="10" as="geometry" />
        </mxCell>
        <mxCell id="1xs2wTyu8J6TD5JoGst9-20" value="" style="verticalLabelPosition=bottom;html=1;verticalAlign=top;align=center;shape=mxgraph.floorplan.wall;fillColor=#000000;strokeWidth=1;" vertex="1" parent="1">
          <mxGeometry x="143.5" y="1275.75" width="47" height="10" as="geometry" />
        </mxCell>
        <mxCell id="1xs2wTyu8J6TD5JoGst9-21" value="" style="verticalLabelPosition=bottom;html=1;verticalAlign=top;align=center;shape=mxgraph.floorplan.wall;fillColor=#000000;strokeWidth=1;" vertex="1" parent="1">
          <mxGeometry x="39.5" y="1215.75" width="47" height="10" as="geometry" />
        </mxCell>
        <mxCell id="1xs2wTyu8J6TD5JoGst9-22" value="" style="verticalLabelPosition=bottom;html=1;verticalAlign=top;align=center;shape=mxgraph.floorplan.wall;fillColor=#000000;strokeWidth=1;" vertex="1" parent="1">
          <mxGeometry x="39.5" y="1275.75" width="47" height="10" as="geometry" />
        </mxCell>
        <mxCell id="1xs2wTyu8J6TD5JoGst9-23" value="" style="verticalLabelPosition=bottom;html=1;verticalAlign=top;align=center;shape=mxgraph.floorplan.wall;fillColor=#000000;strokeWidth=1;" vertex="1" parent="1">
          <mxGeometry x="39.5" y="1345.75" width="47" height="10" as="geometry" />
        </mxCell>
        <mxCell id="1xs2wTyu8J6TD5JoGst9-24" value="" style="verticalLabelPosition=bottom;html=1;verticalAlign=top;align=center;shape=mxgraph.floorplan.wall;fillColor=#000000;strokeWidth=1;" vertex="1" parent="1">
          <mxGeometry x="136.5" y="1345.75" width="47" height="10" as="geometry" />
        </mxCell>
        <mxCell id="1xs2wTyu8J6TD5JoGst9-25" value="" style="verticalLabelPosition=bottom;html=1;verticalAlign=top;align=center;shape=mxgraph.floorplan.sink_1;strokeWidth=1;rotation=90;" vertex="1" parent="1">
          <mxGeometry x="202.25" y="1234.5" width="40" height="32.5" as="geometry" />
        </mxCell>
        <mxCell id="1xs2wTyu8J6TD5JoGst9-26" value="" style="verticalLabelPosition=bottom;html=1;verticalAlign=top;align=center;shape=mxgraph.floorplan.sink_1;strokeWidth=1;rotation=90;" vertex="1" parent="1">
          <mxGeometry x="203.5" y="1293.25" width="40" height="32.5" as="geometry" />
        </mxCell>
        <mxCell id="1xs2wTyu8J6TD5JoGst9-27" value="" style="verticalLabelPosition=bottom;html=1;verticalAlign=top;align=center;shape=mxgraph.floorplan.sink_1;strokeWidth=1;rotation=90;" vertex="1" parent="1">
          <mxGeometry x="202.25" y="1365.75" width="40" height="32.5" as="geometry" />
        </mxCell>
        <mxCell id="1xs2wTyu8J6TD5JoGst9-32" value="" style="verticalLabelPosition=bottom;html=1;verticalAlign=top;align=center;shape=mxgraph.floorplan.sink_1;strokeWidth=1;rotation=90;" vertex="1" parent="1">
          <mxGeometry x="103.5" y="1234.5" width="40" height="32.5" as="geometry" />
        </mxCell>
        <mxCell id="1xs2wTyu8J6TD5JoGst9-35" value="" style="verticalLabelPosition=bottom;html=1;verticalAlign=top;align=center;shape=mxgraph.floorplan.sink_1;strokeWidth=1;rotation=90;" vertex="1" parent="1">
          <mxGeometry x="103.5" y="1293.25" width="40" height="32.5" as="geometry" />
        </mxCell>
        <mxCell id="1xs2wTyu8J6TD5JoGst9-36" value="" style="verticalLabelPosition=bottom;html=1;verticalAlign=top;align=center;shape=mxgraph.floorplan.sink_1;strokeWidth=1;rotation=90;" vertex="1" parent="1">
          <mxGeometry x="103.5" y="1365.75" width="40" height="32.5" as="geometry" />
        </mxCell>
        <mxCell id="1xs2wTyu8J6TD5JoGst9-37" value="" style="verticalLabelPosition=bottom;html=1;verticalAlign=top;align=center;shape=mxgraph.floorplan.toilet;strokeWidth=1;rotation=-90;" vertex="1" parent="1">
          <mxGeometry x="46.5" y="1225.75" width="40" height="50" as="geometry" />
        </mxCell>
        <mxCell id="1xs2wTyu8J6TD5JoGst9-38" value="" style="verticalLabelPosition=bottom;html=1;verticalAlign=top;align=center;shape=mxgraph.floorplan.toilet;strokeWidth=1;rotation=-90;" vertex="1" parent="1">
          <mxGeometry x="46.5" y="1293.25" width="40" height="50" as="geometry" />
        </mxCell>
        <mxCell id="1xs2wTyu8J6TD5JoGst9-39" value="" style="verticalLabelPosition=bottom;html=1;verticalAlign=top;align=center;shape=mxgraph.floorplan.toilet;strokeWidth=1;rotation=-90;" vertex="1" parent="1">
          <mxGeometry x="46.5" y="1357" width="40" height="50" as="geometry" />
        </mxCell>
        <mxCell id="1xs2wTyu8J6TD5JoGst9-40" value="" style="verticalLabelPosition=bottom;html=1;verticalAlign=top;align=center;shape=mxgraph.floorplan.toilet;strokeWidth=1;rotation=-90;" vertex="1" parent="1">
          <mxGeometry x="149" y="1225.75" width="40" height="50" as="geometry" />
        </mxCell>
        <mxCell id="1xs2wTyu8J6TD5JoGst9-41" value="" style="verticalLabelPosition=bottom;html=1;verticalAlign=top;align=center;shape=mxgraph.floorplan.toilet;strokeWidth=1;rotation=-90;" vertex="1" parent="1">
          <mxGeometry x="147.5" y="1291.25" width="40" height="50" as="geometry" />
        </mxCell>
        <mxCell id="1xs2wTyu8J6TD5JoGst9-42" value="" style="verticalLabelPosition=bottom;html=1;verticalAlign=top;align=center;shape=mxgraph.floorplan.toilet;strokeWidth=1;rotation=-90;" vertex="1" parent="1">
          <mxGeometry x="150.5" y="1357" width="40" height="50" as="geometry" />
        </mxCell>
        <mxCell id="1xs2wTyu8J6TD5JoGst9-53" value="" style="verticalLabelPosition=bottom;html=1;verticalAlign=top;align=center;shape=mxgraph.floorplan.room;fillColor=#000000;strokeWidth=1;" vertex="1" parent="1">
          <mxGeometry x="714" y="1115.75" width="270" height="300" as="geometry" />
        </mxCell>
        <mxCell id="1xs2wTyu8J6TD5JoGst9-54" value="" style="verticalLabelPosition=bottom;html=1;verticalAlign=top;align=center;shape=mxgraph.floorplan.doorRight;aspect=fixed;" vertex="1" parent="1">
          <mxGeometry x="714" y="1115.75" width="56.47" height="60" as="geometry" />
        </mxCell>
        <mxCell id="1xs2wTyu8J6TD5JoGst9-55" value="" style="verticalLabelPosition=bottom;html=1;verticalAlign=top;align=center;shape=mxgraph.floorplan.room;fillColor=#000000;strokeWidth=1;" vertex="1" parent="1">
          <mxGeometry x="973.5" y="1115.75" width="270" height="300" as="geometry" />
        </mxCell>
        <mxCell id="1xs2wTyu8J6TD5JoGst9-56" value="" style="verticalLabelPosition=bottom;html=1;verticalAlign=top;align=center;shape=mxgraph.floorplan.doorRight;aspect=fixed;" vertex="1" parent="1">
          <mxGeometry x="973.5" y="1115.75" width="56.47" height="60" as="geometry" />
        </mxCell>
        <mxCell id="1xs2wTyu8J6TD5JoGst9-57" value="" style="verticalLabelPosition=bottom;html=1;verticalAlign=top;align=center;shape=mxgraph.floorplan.room;fillColor=#000000;strokeWidth=1;" vertex="1" parent="1">
          <mxGeometry x="1233.5" y="1115.75" width="270" height="300" as="geometry" />
        </mxCell>
        <mxCell id="1xs2wTyu8J6TD5JoGst9-58" value="" style="verticalLabelPosition=bottom;html=1;verticalAlign=top;align=center;shape=mxgraph.floorplan.doorRight;aspect=fixed;" vertex="1" parent="1">
          <mxGeometry x="1233.5" y="1115.75" width="56.47" height="60" as="geometry" />
        </mxCell>
        <mxCell id="1xs2wTyu8J6TD5JoGst9-59" value="" style="verticalLabelPosition=bottom;html=1;verticalAlign=top;align=center;shape=mxgraph.floorplan.room;fillColor=#000000;strokeWidth=1;" vertex="1" parent="1">
          <mxGeometry x="1493.5" y="1115.75" width="270" height="300" as="geometry" />
        </mxCell>
        <mxCell id="1xs2wTyu8J6TD5JoGst9-60" value="" style="verticalLabelPosition=bottom;html=1;verticalAlign=top;align=center;shape=mxgraph.floorplan.doorRight;aspect=fixed;" vertex="1" parent="1">
          <mxGeometry x="1493.5" y="1115.75" width="56.47" height="60" as="geometry" />
        </mxCell>
        <mxCell id="1xs2wTyu8J6TD5JoGst9-61" value="" style="verticalLabelPosition=bottom;html=1;verticalAlign=top;align=center;shape=mxgraph.floorplan.room;fillColor=#000000;strokeWidth=1;" vertex="1" parent="1">
          <mxGeometry x="1753.5" y="1115.75" width="270" height="300" as="geometry" />
        </mxCell>
        <mxCell id="1xs2wTyu8J6TD5JoGst9-62" value="" style="verticalLabelPosition=bottom;html=1;verticalAlign=top;align=center;shape=mxgraph.floorplan.doorRight;aspect=fixed;" vertex="1" parent="1">
          <mxGeometry x="1753.5" y="1115.75" width="56.47" height="60" as="geometry" />
        </mxCell>
        <mxCell id="1xs2wTyu8J6TD5JoGst9-63" value="" style="verticalLabelPosition=bottom;html=1;verticalAlign=top;align=center;shape=mxgraph.floorplan.room;fillColor=#000000;strokeWidth=1;" vertex="1" parent="1">
          <mxGeometry x="2013.5" y="1115.75" width="270" height="300" as="geometry" />
        </mxCell>
        <mxCell id="1xs2wTyu8J6TD5JoGst9-64" value="" style="verticalLabelPosition=bottom;html=1;verticalAlign=top;align=center;shape=mxgraph.floorplan.doorRight;aspect=fixed;" vertex="1" parent="1">
          <mxGeometry x="2220.5" y="1115.75" width="56.47" height="60" as="geometry" />
        </mxCell>
        <mxCell id="1xs2wTyu8J6TD5JoGst9-71" value="" style="verticalLabelPosition=bottom;html=1;verticalAlign=top;align=center;shape=mxgraph.floorplan.office_chair;shadow=0;strokeWidth=1;rotation=-90;" vertex="1" parent="1">
          <mxGeometry x="474.5" y="1185.12" width="38.74" height="36.5" as="geometry" />
        </mxCell>
        <mxCell id="1xs2wTyu8J6TD5JoGst9-72" value="" style="shape=rect;shadow=0;strokeWidth=1;rotation=-90;" vertex="1" parent="1">
          <mxGeometry x="473.5" y="1185.12" width="68.11" height="40.63" as="geometry" />
        </mxCell>
        <mxCell id="1xs2wTyu8J6TD5JoGst9-74" value="" style="verticalLabelPosition=bottom;html=1;verticalAlign=top;align=center;shape=mxgraph.floorplan.office_chair;shadow=0;strokeWidth=1;rotation=-90;" vertex="1" parent="1">
          <mxGeometry x="734.5" y="1183.05" width="38.74" height="36.5" as="geometry" />
        </mxCell>
        <mxCell id="1xs2wTyu8J6TD5JoGst9-75" value="" style="shape=rect;shadow=0;strokeWidth=1;rotation=-90;" vertex="1" parent="1">
          <mxGeometry x="733.5" y="1183.05" width="68.11" height="40.63" as="geometry" />
        </mxCell>
        <mxCell id="1xs2wTyu8J6TD5JoGst9-80" value="" style="verticalLabelPosition=bottom;html=1;verticalAlign=top;align=center;shape=mxgraph.floorplan.office_chair;shadow=0;strokeWidth=1;rotation=-90;" vertex="1" parent="1">
          <mxGeometry x="994.5" y="1190.43" width="38.74" height="36.5" as="geometry" />
        </mxCell>
        <mxCell id="1xs2wTyu8J6TD5JoGst9-81" value="" style="shape=rect;shadow=0;strokeWidth=1;rotation=-90;" vertex="1" parent="1">
          <mxGeometry x="993.5" y="1190.43" width="68.11" height="40.63" as="geometry" />
        </mxCell>
        <mxCell id="1xs2wTyu8J6TD5JoGst9-82" value="" style="verticalLabelPosition=bottom;html=1;verticalAlign=top;align=center;shape=mxgraph.floorplan.office_chair;shadow=0;strokeWidth=1;rotation=-90;" vertex="1" parent="1">
          <mxGeometry x="1254.5" y="1186.3" width="38.74" height="36.5" as="geometry" />
        </mxCell>
        <mxCell id="1xs2wTyu8J6TD5JoGst9-83" value="" style="shape=rect;shadow=0;strokeWidth=1;rotation=-90;" vertex="1" parent="1">
          <mxGeometry x="1253.5" y="1186.3" width="68.11" height="40.63" as="geometry" />
        </mxCell>
        <mxCell id="1xs2wTyu8J6TD5JoGst9-84" value="" style="verticalLabelPosition=bottom;html=1;verticalAlign=top;align=center;shape=mxgraph.floorplan.office_chair;shadow=0;strokeWidth=1;rotation=-90;" vertex="1" parent="1">
          <mxGeometry x="1514.5" y="1180.98" width="38.74" height="36.5" as="geometry" />
        </mxCell>
        <mxCell id="1xs2wTyu8J6TD5JoGst9-85" value="" style="shape=rect;shadow=0;strokeWidth=1;rotation=-90;" vertex="1" parent="1">
          <mxGeometry x="1513.5" y="1180.98" width="68.11" height="40.63" as="geometry" />
        </mxCell>
        <mxCell id="1xs2wTyu8J6TD5JoGst9-86" value="" style="verticalLabelPosition=bottom;html=1;verticalAlign=top;align=center;shape=mxgraph.floorplan.office_chair;shadow=0;strokeWidth=1;rotation=-90;" vertex="1" parent="1">
          <mxGeometry x="1776.5" y="1186.3" width="38.74" height="36.5" as="geometry" />
        </mxCell>
        <mxCell id="1xs2wTyu8J6TD5JoGst9-87" value="" style="shape=rect;shadow=0;strokeWidth=1;rotation=-90;" vertex="1" parent="1">
          <mxGeometry x="1775.5" y="1186.3" width="68.11" height="40.63" as="geometry" />
        </mxCell>
        <mxCell id="1xs2wTyu8J6TD5JoGst9-88" value="" style="verticalLabelPosition=bottom;html=1;verticalAlign=top;align=center;shape=mxgraph.floorplan.office_chair;strokeWidth=1;rotation=90;" vertex="1" parent="1">
          <mxGeometry x="523.5" y="1155.75" width="30" height="33" as="geometry" />
        </mxCell>
        <mxCell id="1xs2wTyu8J6TD5JoGst9-89" value="" style="verticalLabelPosition=bottom;html=1;verticalAlign=top;align=center;shape=mxgraph.floorplan.office_chair;strokeWidth=1;rotation=90;" vertex="1" parent="1">
          <mxGeometry x="576.53" y="1155.75" width="30" height="33" as="geometry" />
        </mxCell>
        <mxCell id="1xs2wTyu8J6TD5JoGst9-90" value="" style="verticalLabelPosition=bottom;html=1;verticalAlign=top;align=center;shape=mxgraph.floorplan.office_chair;strokeWidth=1;rotation=90;" vertex="1" parent="1">
          <mxGeometry x="626.53" y="1155.75" width="30" height="33" as="geometry" />
        </mxCell>
        <mxCell id="1xs2wTyu8J6TD5JoGst9-91" value="" style="verticalLabelPosition=bottom;html=1;verticalAlign=top;align=center;shape=mxgraph.floorplan.office_chair;strokeWidth=1;rotation=90;" vertex="1" parent="1">
          <mxGeometry x="679.56" y="1155.75" width="30" height="33" as="geometry" />
        </mxCell>
        <mxCell id="1xs2wTyu8J6TD5JoGst9-92" value="" style="verticalLabelPosition=bottom;html=1;verticalAlign=top;align=center;shape=mxgraph.floorplan.office_chair;strokeWidth=1;rotation=90;" vertex="1" parent="1">
          <mxGeometry x="523.5" y="1205.75" width="30" height="33" as="geometry" />
        </mxCell>
        <mxCell id="1xs2wTyu8J6TD5JoGst9-93" value="" style="verticalLabelPosition=bottom;html=1;verticalAlign=top;align=center;shape=mxgraph.floorplan.office_chair;strokeWidth=1;rotation=90;" vertex="1" parent="1">
          <mxGeometry x="576.53" y="1205.75" width="30" height="33" as="geometry" />
        </mxCell>
        <mxCell id="1xs2wTyu8J6TD5JoGst9-94" value="" style="verticalLabelPosition=bottom;html=1;verticalAlign=top;align=center;shape=mxgraph.floorplan.office_chair;strokeWidth=1;rotation=90;" vertex="1" parent="1">
          <mxGeometry x="626.53" y="1205.75" width="30" height="33" as="geometry" />
        </mxCell>
        <mxCell id="1xs2wTyu8J6TD5JoGst9-95" value="" style="verticalLabelPosition=bottom;html=1;verticalAlign=top;align=center;shape=mxgraph.floorplan.office_chair;strokeWidth=1;rotation=90;" vertex="1" parent="1">
          <mxGeometry x="679.56" y="1205.75" width="30" height="33" as="geometry" />
        </mxCell>
        <mxCell id="1xs2wTyu8J6TD5JoGst9-96" value="" style="verticalLabelPosition=bottom;html=1;verticalAlign=top;align=center;shape=mxgraph.floorplan.office_chair;strokeWidth=1;rotation=90;" vertex="1" parent="1">
          <mxGeometry x="523.5" y="1255.75" width="30" height="33" as="geometry" />
        </mxCell>
        <mxCell id="1xs2wTyu8J6TD5JoGst9-97" value="" style="verticalLabelPosition=bottom;html=1;verticalAlign=top;align=center;shape=mxgraph.floorplan.office_chair;strokeWidth=1;rotation=90;" vertex="1" parent="1">
          <mxGeometry x="576.53" y="1255.75" width="30" height="33" as="geometry" />
        </mxCell>
        <mxCell id="1xs2wTyu8J6TD5JoGst9-98" value="" style="verticalLabelPosition=bottom;html=1;verticalAlign=top;align=center;shape=mxgraph.floorplan.office_chair;strokeWidth=1;rotation=90;" vertex="1" parent="1">
          <mxGeometry x="626.53" y="1255.75" width="30" height="33" as="geometry" />
        </mxCell>
        <mxCell id="1xs2wTyu8J6TD5JoGst9-99" value="" style="verticalLabelPosition=bottom;html=1;verticalAlign=top;align=center;shape=mxgraph.floorplan.office_chair;strokeWidth=1;rotation=90;" vertex="1" parent="1">
          <mxGeometry x="679.56" y="1255.75" width="30" height="33" as="geometry" />
        </mxCell>
        <mxCell id="1xs2wTyu8J6TD5JoGst9-100" value="" style="verticalLabelPosition=bottom;html=1;verticalAlign=top;align=center;shape=mxgraph.floorplan.office_chair;strokeWidth=1;rotation=90;" vertex="1" parent="1">
          <mxGeometry x="523.5" y="1305.75" width="30" height="33" as="geometry" />
        </mxCell>
        <mxCell id="1xs2wTyu8J6TD5JoGst9-101" value="" style="verticalLabelPosition=bottom;html=1;verticalAlign=top;align=center;shape=mxgraph.floorplan.office_chair;strokeWidth=1;rotation=90;" vertex="1" parent="1">
          <mxGeometry x="576.53" y="1305.75" width="30" height="33" as="geometry" />
        </mxCell>
        <mxCell id="1xs2wTyu8J6TD5JoGst9-102" value="" style="verticalLabelPosition=bottom;html=1;verticalAlign=top;align=center;shape=mxgraph.floorplan.office_chair;strokeWidth=1;rotation=90;" vertex="1" parent="1">
          <mxGeometry x="626.53" y="1305.75" width="30" height="33" as="geometry" />
        </mxCell>
        <mxCell id="1xs2wTyu8J6TD5JoGst9-103" value="" style="verticalLabelPosition=bottom;html=1;verticalAlign=top;align=center;shape=mxgraph.floorplan.office_chair;strokeWidth=1;rotation=90;" vertex="1" parent="1">
          <mxGeometry x="679.56" y="1305.75" width="30" height="33" as="geometry" />
        </mxCell>
        <mxCell id="1xs2wTyu8J6TD5JoGst9-112" value="" style="verticalLabelPosition=bottom;html=1;verticalAlign=top;align=center;shape=mxgraph.floorplan.office_chair;strokeWidth=1;rotation=90;" vertex="1" parent="1">
          <mxGeometry x="523.5" y="1355.75" width="30" height="33" as="geometry" />
        </mxCell>
        <mxCell id="1xs2wTyu8J6TD5JoGst9-113" value="" style="verticalLabelPosition=bottom;html=1;verticalAlign=top;align=center;shape=mxgraph.floorplan.office_chair;strokeWidth=1;rotation=90;" vertex="1" parent="1">
          <mxGeometry x="576.53" y="1355.75" width="30" height="33" as="geometry" />
        </mxCell>
        <mxCell id="1xs2wTyu8J6TD5JoGst9-114" value="" style="verticalLabelPosition=bottom;html=1;verticalAlign=top;align=center;shape=mxgraph.floorplan.office_chair;strokeWidth=1;rotation=90;" vertex="1" parent="1">
          <mxGeometry x="626.53" y="1355.75" width="30" height="33" as="geometry" />
        </mxCell>
        <mxCell id="1xs2wTyu8J6TD5JoGst9-115" value="" style="verticalLabelPosition=bottom;html=1;verticalAlign=top;align=center;shape=mxgraph.floorplan.office_chair;strokeWidth=1;rotation=90;" vertex="1" parent="1">
          <mxGeometry x="679.56" y="1355.75" width="30" height="33" as="geometry" />
        </mxCell>
        <mxCell id="1xs2wTyu8J6TD5JoGst9-116" value="" style="verticalLabelPosition=bottom;html=1;verticalAlign=top;align=center;shape=mxgraph.floorplan.office_chair;strokeWidth=1;rotation=90;" vertex="1" parent="1">
          <mxGeometry x="787.44" y="1149.25" width="30" height="33" as="geometry" />
        </mxCell>
        <mxCell id="1xs2wTyu8J6TD5JoGst9-117" value="" style="verticalLabelPosition=bottom;html=1;verticalAlign=top;align=center;shape=mxgraph.floorplan.office_chair;strokeWidth=1;rotation=90;" vertex="1" parent="1">
          <mxGeometry x="840.47" y="1149.25" width="30" height="33" as="geometry" />
        </mxCell>
        <mxCell id="1xs2wTyu8J6TD5JoGst9-118" value="" style="verticalLabelPosition=bottom;html=1;verticalAlign=top;align=center;shape=mxgraph.floorplan.office_chair;strokeWidth=1;rotation=90;" vertex="1" parent="1">
          <mxGeometry x="890.47" y="1149.25" width="30" height="33" as="geometry" />
        </mxCell>
        <mxCell id="1xs2wTyu8J6TD5JoGst9-119" value="" style="verticalLabelPosition=bottom;html=1;verticalAlign=top;align=center;shape=mxgraph.floorplan.office_chair;strokeWidth=1;rotation=90;" vertex="1" parent="1">
          <mxGeometry x="943.5" y="1149.25" width="30" height="33" as="geometry" />
        </mxCell>
        <mxCell id="1xs2wTyu8J6TD5JoGst9-120" value="" style="verticalLabelPosition=bottom;html=1;verticalAlign=top;align=center;shape=mxgraph.floorplan.office_chair;strokeWidth=1;rotation=90;" vertex="1" parent="1">
          <mxGeometry x="787.44" y="1199.25" width="30" height="33" as="geometry" />
        </mxCell>
        <mxCell id="1xs2wTyu8J6TD5JoGst9-121" value="" style="verticalLabelPosition=bottom;html=1;verticalAlign=top;align=center;shape=mxgraph.floorplan.office_chair;strokeWidth=1;rotation=90;" vertex="1" parent="1">
          <mxGeometry x="840.47" y="1199.25" width="30" height="33" as="geometry" />
        </mxCell>
        <mxCell id="1xs2wTyu8J6TD5JoGst9-122" value="" style="verticalLabelPosition=bottom;html=1;verticalAlign=top;align=center;shape=mxgraph.floorplan.office_chair;strokeWidth=1;rotation=90;" vertex="1" parent="1">
          <mxGeometry x="890.47" y="1199.25" width="30" height="33" as="geometry" />
        </mxCell>
        <mxCell id="1xs2wTyu8J6TD5JoGst9-123" value="" style="verticalLabelPosition=bottom;html=1;verticalAlign=top;align=center;shape=mxgraph.floorplan.office_chair;strokeWidth=1;rotation=90;" vertex="1" parent="1">
          <mxGeometry x="943.5" y="1199.25" width="30" height="33" as="geometry" />
        </mxCell>
        <mxCell id="1xs2wTyu8J6TD5JoGst9-124" value="" style="verticalLabelPosition=bottom;html=1;verticalAlign=top;align=center;shape=mxgraph.floorplan.office_chair;strokeWidth=1;rotation=90;" vertex="1" parent="1">
          <mxGeometry x="787.44" y="1249.25" width="30" height="33" as="geometry" />
        </mxCell>
        <mxCell id="1xs2wTyu8J6TD5JoGst9-125" value="" style="verticalLabelPosition=bottom;html=1;verticalAlign=top;align=center;shape=mxgraph.floorplan.office_chair;strokeWidth=1;rotation=90;" vertex="1" parent="1">
          <mxGeometry x="840.47" y="1249.25" width="30" height="33" as="geometry" />
        </mxCell>
        <mxCell id="1xs2wTyu8J6TD5JoGst9-126" value="" style="verticalLabelPosition=bottom;html=1;verticalAlign=top;align=center;shape=mxgraph.floorplan.office_chair;strokeWidth=1;rotation=90;" vertex="1" parent="1">
          <mxGeometry x="890.47" y="1249.25" width="30" height="33" as="geometry" />
        </mxCell>
        <mxCell id="1xs2wTyu8J6TD5JoGst9-127" value="" style="verticalLabelPosition=bottom;html=1;verticalAlign=top;align=center;shape=mxgraph.floorplan.office_chair;strokeWidth=1;rotation=90;" vertex="1" parent="1">
          <mxGeometry x="943.5" y="1249.25" width="30" height="33" as="geometry" />
        </mxCell>
        <mxCell id="1xs2wTyu8J6TD5JoGst9-128" value="" style="verticalLabelPosition=bottom;html=1;verticalAlign=top;align=center;shape=mxgraph.floorplan.office_chair;strokeWidth=1;rotation=90;" vertex="1" parent="1">
          <mxGeometry x="787.44" y="1299.25" width="30" height="33" as="geometry" />
        </mxCell>
        <mxCell id="1xs2wTyu8J6TD5JoGst9-129" value="" style="verticalLabelPosition=bottom;html=1;verticalAlign=top;align=center;shape=mxgraph.floorplan.office_chair;strokeWidth=1;rotation=90;" vertex="1" parent="1">
          <mxGeometry x="840.47" y="1299.25" width="30" height="33" as="geometry" />
        </mxCell>
        <mxCell id="1xs2wTyu8J6TD5JoGst9-130" value="" style="verticalLabelPosition=bottom;html=1;verticalAlign=top;align=center;shape=mxgraph.floorplan.office_chair;strokeWidth=1;rotation=90;" vertex="1" parent="1">
          <mxGeometry x="890.47" y="1299.25" width="30" height="33" as="geometry" />
        </mxCell>
        <mxCell id="1xs2wTyu8J6TD5JoGst9-131" value="" style="verticalLabelPosition=bottom;html=1;verticalAlign=top;align=center;shape=mxgraph.floorplan.office_chair;strokeWidth=1;rotation=90;" vertex="1" parent="1">
          <mxGeometry x="943.5" y="1299.25" width="30" height="33" as="geometry" />
        </mxCell>
        <mxCell id="1xs2wTyu8J6TD5JoGst9-132" value="" style="verticalLabelPosition=bottom;html=1;verticalAlign=top;align=center;shape=mxgraph.floorplan.office_chair;strokeWidth=1;rotation=90;" vertex="1" parent="1">
          <mxGeometry x="787.44" y="1349.25" width="30" height="33" as="geometry" />
        </mxCell>
        <mxCell id="1xs2wTyu8J6TD5JoGst9-133" value="" style="verticalLabelPosition=bottom;html=1;verticalAlign=top;align=center;shape=mxgraph.floorplan.office_chair;strokeWidth=1;rotation=90;" vertex="1" parent="1">
          <mxGeometry x="840.47" y="1349.25" width="30" height="33" as="geometry" />
        </mxCell>
        <mxCell id="1xs2wTyu8J6TD5JoGst9-134" value="" style="verticalLabelPosition=bottom;html=1;verticalAlign=top;align=center;shape=mxgraph.floorplan.office_chair;strokeWidth=1;rotation=90;" vertex="1" parent="1">
          <mxGeometry x="890.47" y="1349.25" width="30" height="33" as="geometry" />
        </mxCell>
        <mxCell id="1xs2wTyu8J6TD5JoGst9-135" value="" style="verticalLabelPosition=bottom;html=1;verticalAlign=top;align=center;shape=mxgraph.floorplan.office_chair;strokeWidth=1;rotation=90;" vertex="1" parent="1">
          <mxGeometry x="943.5" y="1349.25" width="30" height="33" as="geometry" />
        </mxCell>
        <mxCell id="1xs2wTyu8J6TD5JoGst9-136" value="" style="verticalLabelPosition=bottom;html=1;verticalAlign=top;align=center;shape=mxgraph.floorplan.office_chair;strokeWidth=1;rotation=90;" vertex="1" parent="1">
          <mxGeometry x="1043.5" y="1149.25" width="30" height="33" as="geometry" />
        </mxCell>
        <mxCell id="1xs2wTyu8J6TD5JoGst9-137" value="" style="verticalLabelPosition=bottom;html=1;verticalAlign=top;align=center;shape=mxgraph.floorplan.office_chair;strokeWidth=1;rotation=90;" vertex="1" parent="1">
          <mxGeometry x="1096.53" y="1149.25" width="30" height="33" as="geometry" />
        </mxCell>
        <mxCell id="1xs2wTyu8J6TD5JoGst9-138" value="" style="verticalLabelPosition=bottom;html=1;verticalAlign=top;align=center;shape=mxgraph.floorplan.office_chair;strokeWidth=1;rotation=90;" vertex="1" parent="1">
          <mxGeometry x="1146.53" y="1149.25" width="30" height="33" as="geometry" />
        </mxCell>
        <mxCell id="1xs2wTyu8J6TD5JoGst9-139" value="" style="verticalLabelPosition=bottom;html=1;verticalAlign=top;align=center;shape=mxgraph.floorplan.office_chair;strokeWidth=1;rotation=90;" vertex="1" parent="1">
          <mxGeometry x="1199.56" y="1149.25" width="30" height="33" as="geometry" />
        </mxCell>
        <mxCell id="1xs2wTyu8J6TD5JoGst9-140" value="" style="verticalLabelPosition=bottom;html=1;verticalAlign=top;align=center;shape=mxgraph.floorplan.office_chair;strokeWidth=1;rotation=90;" vertex="1" parent="1">
          <mxGeometry x="1043.5" y="1199.25" width="30" height="33" as="geometry" />
        </mxCell>
        <mxCell id="1xs2wTyu8J6TD5JoGst9-141" value="" style="verticalLabelPosition=bottom;html=1;verticalAlign=top;align=center;shape=mxgraph.floorplan.office_chair;strokeWidth=1;rotation=90;" vertex="1" parent="1">
          <mxGeometry x="1096.53" y="1199.25" width="30" height="33" as="geometry" />
        </mxCell>
        <mxCell id="1xs2wTyu8J6TD5JoGst9-142" value="" style="verticalLabelPosition=bottom;html=1;verticalAlign=top;align=center;shape=mxgraph.floorplan.office_chair;strokeWidth=1;rotation=90;" vertex="1" parent="1">
          <mxGeometry x="1146.53" y="1199.25" width="30" height="33" as="geometry" />
        </mxCell>
        <mxCell id="1xs2wTyu8J6TD5JoGst9-143" value="" style="verticalLabelPosition=bottom;html=1;verticalAlign=top;align=center;shape=mxgraph.floorplan.office_chair;strokeWidth=1;rotation=90;" vertex="1" parent="1">
          <mxGeometry x="1199.56" y="1199.25" width="30" height="33" as="geometry" />
        </mxCell>
        <mxCell id="1xs2wTyu8J6TD5JoGst9-144" value="" style="verticalLabelPosition=bottom;html=1;verticalAlign=top;align=center;shape=mxgraph.floorplan.office_chair;strokeWidth=1;rotation=90;" vertex="1" parent="1">
          <mxGeometry x="1043.5" y="1249.25" width="30" height="33" as="geometry" />
        </mxCell>
        <mxCell id="1xs2wTyu8J6TD5JoGst9-145" value="" style="verticalLabelPosition=bottom;html=1;verticalAlign=top;align=center;shape=mxgraph.floorplan.office_chair;strokeWidth=1;rotation=90;" vertex="1" parent="1">
          <mxGeometry x="1096.53" y="1249.25" width="30" height="33" as="geometry" />
        </mxCell>
        <mxCell id="1xs2wTyu8J6TD5JoGst9-146" value="" style="verticalLabelPosition=bottom;html=1;verticalAlign=top;align=center;shape=mxgraph.floorplan.office_chair;strokeWidth=1;rotation=90;" vertex="1" parent="1">
          <mxGeometry x="1146.53" y="1249.25" width="30" height="33" as="geometry" />
        </mxCell>
        <mxCell id="1xs2wTyu8J6TD5JoGst9-147" value="" style="verticalLabelPosition=bottom;html=1;verticalAlign=top;align=center;shape=mxgraph.floorplan.office_chair;strokeWidth=1;rotation=90;" vertex="1" parent="1">
          <mxGeometry x="1199.56" y="1249.25" width="30" height="33" as="geometry" />
        </mxCell>
        <mxCell id="1xs2wTyu8J6TD5JoGst9-148" value="" style="verticalLabelPosition=bottom;html=1;verticalAlign=top;align=center;shape=mxgraph.floorplan.office_chair;strokeWidth=1;rotation=90;" vertex="1" parent="1">
          <mxGeometry x="1043.5" y="1299.25" width="30" height="33" as="geometry" />
        </mxCell>
        <mxCell id="1xs2wTyu8J6TD5JoGst9-149" value="" style="verticalLabelPosition=bottom;html=1;verticalAlign=top;align=center;shape=mxgraph.floorplan.office_chair;strokeWidth=1;rotation=90;" vertex="1" parent="1">
          <mxGeometry x="1096.53" y="1299.25" width="30" height="33" as="geometry" />
        </mxCell>
        <mxCell id="1xs2wTyu8J6TD5JoGst9-150" value="" style="verticalLabelPosition=bottom;html=1;verticalAlign=top;align=center;shape=mxgraph.floorplan.office_chair;strokeWidth=1;rotation=90;" vertex="1" parent="1">
          <mxGeometry x="1146.53" y="1299.25" width="30" height="33" as="geometry" />
        </mxCell>
        <mxCell id="1xs2wTyu8J6TD5JoGst9-151" value="" style="verticalLabelPosition=bottom;html=1;verticalAlign=top;align=center;shape=mxgraph.floorplan.office_chair;strokeWidth=1;rotation=90;" vertex="1" parent="1">
          <mxGeometry x="1199.56" y="1299.25" width="30" height="33" as="geometry" />
        </mxCell>
        <mxCell id="1xs2wTyu8J6TD5JoGst9-152" value="" style="verticalLabelPosition=bottom;html=1;verticalAlign=top;align=center;shape=mxgraph.floorplan.office_chair;strokeWidth=1;rotation=90;" vertex="1" parent="1">
          <mxGeometry x="1043.5" y="1349.25" width="30" height="33" as="geometry" />
        </mxCell>
        <mxCell id="1xs2wTyu8J6TD5JoGst9-153" value="" style="verticalLabelPosition=bottom;html=1;verticalAlign=top;align=center;shape=mxgraph.floorplan.office_chair;strokeWidth=1;rotation=90;" vertex="1" parent="1">
          <mxGeometry x="1096.53" y="1349.25" width="30" height="33" as="geometry" />
        </mxCell>
        <mxCell id="1xs2wTyu8J6TD5JoGst9-154" value="" style="verticalLabelPosition=bottom;html=1;verticalAlign=top;align=center;shape=mxgraph.floorplan.office_chair;strokeWidth=1;rotation=90;" vertex="1" parent="1">
          <mxGeometry x="1146.53" y="1349.25" width="30" height="33" as="geometry" />
        </mxCell>
        <mxCell id="1xs2wTyu8J6TD5JoGst9-155" value="" style="verticalLabelPosition=bottom;html=1;verticalAlign=top;align=center;shape=mxgraph.floorplan.office_chair;strokeWidth=1;rotation=90;" vertex="1" parent="1">
          <mxGeometry x="1199.56" y="1349.25" width="30" height="33" as="geometry" />
        </mxCell>
        <mxCell id="1xs2wTyu8J6TD5JoGst9-156" value="" style="verticalLabelPosition=bottom;html=1;verticalAlign=top;align=center;shape=mxgraph.floorplan.office_chair;strokeWidth=1;rotation=90;" vertex="1" parent="1">
          <mxGeometry x="1307.44" y="1155.75" width="30" height="33" as="geometry" />
        </mxCell>
        <mxCell id="1xs2wTyu8J6TD5JoGst9-157" value="" style="verticalLabelPosition=bottom;html=1;verticalAlign=top;align=center;shape=mxgraph.floorplan.office_chair;strokeWidth=1;rotation=90;" vertex="1" parent="1">
          <mxGeometry x="1360.47" y="1155.75" width="30" height="33" as="geometry" />
        </mxCell>
        <mxCell id="1xs2wTyu8J6TD5JoGst9-158" value="" style="verticalLabelPosition=bottom;html=1;verticalAlign=top;align=center;shape=mxgraph.floorplan.office_chair;strokeWidth=1;rotation=90;" vertex="1" parent="1">
          <mxGeometry x="1410.47" y="1155.75" width="30" height="33" as="geometry" />
        </mxCell>
        <mxCell id="1xs2wTyu8J6TD5JoGst9-159" value="" style="verticalLabelPosition=bottom;html=1;verticalAlign=top;align=center;shape=mxgraph.floorplan.office_chair;strokeWidth=1;rotation=90;" vertex="1" parent="1">
          <mxGeometry x="1463.5" y="1155.75" width="30" height="33" as="geometry" />
        </mxCell>
        <mxCell id="1xs2wTyu8J6TD5JoGst9-160" value="" style="verticalLabelPosition=bottom;html=1;verticalAlign=top;align=center;shape=mxgraph.floorplan.office_chair;strokeWidth=1;rotation=90;" vertex="1" parent="1">
          <mxGeometry x="1307.44" y="1205.75" width="30" height="33" as="geometry" />
        </mxCell>
        <mxCell id="1xs2wTyu8J6TD5JoGst9-161" value="" style="verticalLabelPosition=bottom;html=1;verticalAlign=top;align=center;shape=mxgraph.floorplan.office_chair;strokeWidth=1;rotation=90;" vertex="1" parent="1">
          <mxGeometry x="1360.47" y="1205.75" width="30" height="33" as="geometry" />
        </mxCell>
        <mxCell id="1xs2wTyu8J6TD5JoGst9-162" value="" style="verticalLabelPosition=bottom;html=1;verticalAlign=top;align=center;shape=mxgraph.floorplan.office_chair;strokeWidth=1;rotation=90;" vertex="1" parent="1">
          <mxGeometry x="1410.47" y="1205.75" width="30" height="33" as="geometry" />
        </mxCell>
        <mxCell id="1xs2wTyu8J6TD5JoGst9-163" value="" style="verticalLabelPosition=bottom;html=1;verticalAlign=top;align=center;shape=mxgraph.floorplan.office_chair;strokeWidth=1;rotation=90;" vertex="1" parent="1">
          <mxGeometry x="1463.5" y="1205.75" width="30" height="33" as="geometry" />
        </mxCell>
        <mxCell id="1xs2wTyu8J6TD5JoGst9-164" value="" style="verticalLabelPosition=bottom;html=1;verticalAlign=top;align=center;shape=mxgraph.floorplan.office_chair;strokeWidth=1;rotation=90;" vertex="1" parent="1">
          <mxGeometry x="1307.44" y="1255.75" width="30" height="33" as="geometry" />
        </mxCell>
        <mxCell id="1xs2wTyu8J6TD5JoGst9-165" value="" style="verticalLabelPosition=bottom;html=1;verticalAlign=top;align=center;shape=mxgraph.floorplan.office_chair;strokeWidth=1;rotation=90;" vertex="1" parent="1">
          <mxGeometry x="1360.47" y="1255.75" width="30" height="33" as="geometry" />
        </mxCell>
        <mxCell id="1xs2wTyu8J6TD5JoGst9-166" value="" style="verticalLabelPosition=bottom;html=1;verticalAlign=top;align=center;shape=mxgraph.floorplan.office_chair;strokeWidth=1;rotation=90;" vertex="1" parent="1">
          <mxGeometry x="1410.47" y="1255.75" width="30" height="33" as="geometry" />
        </mxCell>
        <mxCell id="1xs2wTyu8J6TD5JoGst9-167" value="" style="verticalLabelPosition=bottom;html=1;verticalAlign=top;align=center;shape=mxgraph.floorplan.office_chair;strokeWidth=1;rotation=90;" vertex="1" parent="1">
          <mxGeometry x="1463.5" y="1255.75" width="30" height="33" as="geometry" />
        </mxCell>
        <mxCell id="1xs2wTyu8J6TD5JoGst9-168" value="" style="verticalLabelPosition=bottom;html=1;verticalAlign=top;align=center;shape=mxgraph.floorplan.office_chair;strokeWidth=1;rotation=90;" vertex="1" parent="1">
          <mxGeometry x="1307.44" y="1305.75" width="30" height="33" as="geometry" />
        </mxCell>
        <mxCell id="1xs2wTyu8J6TD5JoGst9-169" value="" style="verticalLabelPosition=bottom;html=1;verticalAlign=top;align=center;shape=mxgraph.floorplan.office_chair;strokeWidth=1;rotation=90;" vertex="1" parent="1">
          <mxGeometry x="1360.47" y="1305.75" width="30" height="33" as="geometry" />
        </mxCell>
        <mxCell id="1xs2wTyu8J6TD5JoGst9-170" value="" style="verticalLabelPosition=bottom;html=1;verticalAlign=top;align=center;shape=mxgraph.floorplan.office_chair;strokeWidth=1;rotation=90;" vertex="1" parent="1">
          <mxGeometry x="1410.47" y="1305.75" width="30" height="33" as="geometry" />
        </mxCell>
        <mxCell id="1xs2wTyu8J6TD5JoGst9-171" value="" style="verticalLabelPosition=bottom;html=1;verticalAlign=top;align=center;shape=mxgraph.floorplan.office_chair;strokeWidth=1;rotation=90;" vertex="1" parent="1">
          <mxGeometry x="1463.5" y="1305.75" width="30" height="33" as="geometry" />
        </mxCell>
        <mxCell id="1xs2wTyu8J6TD5JoGst9-172" value="" style="verticalLabelPosition=bottom;html=1;verticalAlign=top;align=center;shape=mxgraph.floorplan.office_chair;strokeWidth=1;rotation=90;" vertex="1" parent="1">
          <mxGeometry x="1307.44" y="1355.75" width="30" height="33" as="geometry" />
        </mxCell>
        <mxCell id="1xs2wTyu8J6TD5JoGst9-173" value="" style="verticalLabelPosition=bottom;html=1;verticalAlign=top;align=center;shape=mxgraph.floorplan.office_chair;strokeWidth=1;rotation=90;" vertex="1" parent="1">
          <mxGeometry x="1360.47" y="1355.75" width="30" height="33" as="geometry" />
        </mxCell>
        <mxCell id="1xs2wTyu8J6TD5JoGst9-174" value="" style="verticalLabelPosition=bottom;html=1;verticalAlign=top;align=center;shape=mxgraph.floorplan.office_chair;strokeWidth=1;rotation=90;" vertex="1" parent="1">
          <mxGeometry x="1410.47" y="1355.75" width="30" height="33" as="geometry" />
        </mxCell>
        <mxCell id="1xs2wTyu8J6TD5JoGst9-175" value="" style="verticalLabelPosition=bottom;html=1;verticalAlign=top;align=center;shape=mxgraph.floorplan.office_chair;strokeWidth=1;rotation=90;" vertex="1" parent="1">
          <mxGeometry x="1463.5" y="1355.75" width="30" height="33" as="geometry" />
        </mxCell>
        <mxCell id="1xs2wTyu8J6TD5JoGst9-176" value="" style="verticalLabelPosition=bottom;html=1;verticalAlign=top;align=center;shape=mxgraph.floorplan.office_chair;strokeWidth=1;rotation=90;" vertex="1" parent="1">
          <mxGeometry x="1563.5" y="1148.88" width="30" height="33" as="geometry" />
        </mxCell>
        <mxCell id="1xs2wTyu8J6TD5JoGst9-177" value="" style="verticalLabelPosition=bottom;html=1;verticalAlign=top;align=center;shape=mxgraph.floorplan.office_chair;strokeWidth=1;rotation=90;" vertex="1" parent="1">
          <mxGeometry x="1616.53" y="1148.88" width="30" height="33" as="geometry" />
        </mxCell>
        <mxCell id="1xs2wTyu8J6TD5JoGst9-178" value="" style="verticalLabelPosition=bottom;html=1;verticalAlign=top;align=center;shape=mxgraph.floorplan.office_chair;strokeWidth=1;rotation=90;" vertex="1" parent="1">
          <mxGeometry x="1666.53" y="1148.88" width="30" height="33" as="geometry" />
        </mxCell>
        <mxCell id="1xs2wTyu8J6TD5JoGst9-179" value="" style="verticalLabelPosition=bottom;html=1;verticalAlign=top;align=center;shape=mxgraph.floorplan.office_chair;strokeWidth=1;rotation=90;" vertex="1" parent="1">
          <mxGeometry x="1719.56" y="1148.88" width="30" height="33" as="geometry" />
        </mxCell>
        <mxCell id="1xs2wTyu8J6TD5JoGst9-180" value="" style="verticalLabelPosition=bottom;html=1;verticalAlign=top;align=center;shape=mxgraph.floorplan.office_chair;strokeWidth=1;rotation=90;" vertex="1" parent="1">
          <mxGeometry x="1563.5" y="1198.88" width="30" height="33" as="geometry" />
        </mxCell>
        <mxCell id="1xs2wTyu8J6TD5JoGst9-181" value="" style="verticalLabelPosition=bottom;html=1;verticalAlign=top;align=center;shape=mxgraph.floorplan.office_chair;strokeWidth=1;rotation=90;" vertex="1" parent="1">
          <mxGeometry x="1616.53" y="1198.88" width="30" height="33" as="geometry" />
        </mxCell>
        <mxCell id="1xs2wTyu8J6TD5JoGst9-182" value="" style="verticalLabelPosition=bottom;html=1;verticalAlign=top;align=center;shape=mxgraph.floorplan.office_chair;strokeWidth=1;rotation=90;" vertex="1" parent="1">
          <mxGeometry x="1666.53" y="1198.88" width="30" height="33" as="geometry" />
        </mxCell>
        <mxCell id="1xs2wTyu8J6TD5JoGst9-183" value="" style="verticalLabelPosition=bottom;html=1;verticalAlign=top;align=center;shape=mxgraph.floorplan.office_chair;strokeWidth=1;rotation=90;" vertex="1" parent="1">
          <mxGeometry x="1719.56" y="1198.88" width="30" height="33" as="geometry" />
        </mxCell>
        <mxCell id="1xs2wTyu8J6TD5JoGst9-184" value="" style="verticalLabelPosition=bottom;html=1;verticalAlign=top;align=center;shape=mxgraph.floorplan.office_chair;strokeWidth=1;rotation=90;" vertex="1" parent="1">
          <mxGeometry x="1563.5" y="1248.88" width="30" height="33" as="geometry" />
        </mxCell>
        <mxCell id="1xs2wTyu8J6TD5JoGst9-185" value="" style="verticalLabelPosition=bottom;html=1;verticalAlign=top;align=center;shape=mxgraph.floorplan.office_chair;strokeWidth=1;rotation=90;" vertex="1" parent="1">
          <mxGeometry x="1616.53" y="1248.88" width="30" height="33" as="geometry" />
        </mxCell>
        <mxCell id="1xs2wTyu8J6TD5JoGst9-186" value="" style="verticalLabelPosition=bottom;html=1;verticalAlign=top;align=center;shape=mxgraph.floorplan.office_chair;strokeWidth=1;rotation=90;" vertex="1" parent="1">
          <mxGeometry x="1666.53" y="1248.88" width="30" height="33" as="geometry" />
        </mxCell>
        <mxCell id="1xs2wTyu8J6TD5JoGst9-187" value="" style="verticalLabelPosition=bottom;html=1;verticalAlign=top;align=center;shape=mxgraph.floorplan.office_chair;strokeWidth=1;rotation=90;" vertex="1" parent="1">
          <mxGeometry x="1719.56" y="1248.88" width="30" height="33" as="geometry" />
        </mxCell>
        <mxCell id="1xs2wTyu8J6TD5JoGst9-188" value="" style="verticalLabelPosition=bottom;html=1;verticalAlign=top;align=center;shape=mxgraph.floorplan.office_chair;strokeWidth=1;rotation=90;" vertex="1" parent="1">
          <mxGeometry x="1563.5" y="1298.88" width="30" height="33" as="geometry" />
        </mxCell>
        <mxCell id="1xs2wTyu8J6TD5JoGst9-189" value="" style="verticalLabelPosition=bottom;html=1;verticalAlign=top;align=center;shape=mxgraph.floorplan.office_chair;strokeWidth=1;rotation=90;" vertex="1" parent="1">
          <mxGeometry x="1616.53" y="1298.88" width="30" height="33" as="geometry" />
        </mxCell>
        <mxCell id="1xs2wTyu8J6TD5JoGst9-190" value="" style="verticalLabelPosition=bottom;html=1;verticalAlign=top;align=center;shape=mxgraph.floorplan.office_chair;strokeWidth=1;rotation=90;" vertex="1" parent="1">
          <mxGeometry x="1666.53" y="1298.88" width="30" height="33" as="geometry" />
        </mxCell>
        <mxCell id="1xs2wTyu8J6TD5JoGst9-191" value="" style="verticalLabelPosition=bottom;html=1;verticalAlign=top;align=center;shape=mxgraph.floorplan.office_chair;strokeWidth=1;rotation=90;" vertex="1" parent="1">
          <mxGeometry x="1719.56" y="1298.88" width="30" height="33" as="geometry" />
        </mxCell>
        <mxCell id="1xs2wTyu8J6TD5JoGst9-192" value="" style="verticalLabelPosition=bottom;html=1;verticalAlign=top;align=center;shape=mxgraph.floorplan.office_chair;strokeWidth=1;rotation=90;" vertex="1" parent="1">
          <mxGeometry x="1563.5" y="1348.88" width="30" height="33" as="geometry" />
        </mxCell>
        <mxCell id="1xs2wTyu8J6TD5JoGst9-193" value="" style="verticalLabelPosition=bottom;html=1;verticalAlign=top;align=center;shape=mxgraph.floorplan.office_chair;strokeWidth=1;rotation=90;" vertex="1" parent="1">
          <mxGeometry x="1616.53" y="1348.88" width="30" height="33" as="geometry" />
        </mxCell>
        <mxCell id="1xs2wTyu8J6TD5JoGst9-194" value="" style="verticalLabelPosition=bottom;html=1;verticalAlign=top;align=center;shape=mxgraph.floorplan.office_chair;strokeWidth=1;rotation=90;" vertex="1" parent="1">
          <mxGeometry x="1666.53" y="1348.88" width="30" height="33" as="geometry" />
        </mxCell>
        <mxCell id="1xs2wTyu8J6TD5JoGst9-195" value="" style="verticalLabelPosition=bottom;html=1;verticalAlign=top;align=center;shape=mxgraph.floorplan.office_chair;strokeWidth=1;rotation=90;" vertex="1" parent="1">
          <mxGeometry x="1719.56" y="1348.88" width="30" height="33" as="geometry" />
        </mxCell>
        <mxCell id="1xs2wTyu8J6TD5JoGst9-236" value="" style="verticalLabelPosition=bottom;html=1;verticalAlign=top;align=center;shape=mxgraph.floorplan.office_chair;strokeWidth=1;rotation=90;" vertex="1" parent="1">
          <mxGeometry x="1825" y="1155.75" width="30" height="33" as="geometry" />
        </mxCell>
        <mxCell id="1xs2wTyu8J6TD5JoGst9-237" value="" style="verticalLabelPosition=bottom;html=1;verticalAlign=top;align=center;shape=mxgraph.floorplan.office_chair;strokeWidth=1;rotation=90;" vertex="1" parent="1">
          <mxGeometry x="1878.0299999999997" y="1155.75" width="30" height="33" as="geometry" />
        </mxCell>
        <mxCell id="1xs2wTyu8J6TD5JoGst9-238" value="" style="verticalLabelPosition=bottom;html=1;verticalAlign=top;align=center;shape=mxgraph.floorplan.office_chair;strokeWidth=1;rotation=90;" vertex="1" parent="1">
          <mxGeometry x="1928.0299999999997" y="1155.75" width="30" height="33" as="geometry" />
        </mxCell>
        <mxCell id="1xs2wTyu8J6TD5JoGst9-239" value="" style="verticalLabelPosition=bottom;html=1;verticalAlign=top;align=center;shape=mxgraph.floorplan.office_chair;strokeWidth=1;rotation=90;" vertex="1" parent="1">
          <mxGeometry x="1981.06" y="1155.75" width="30" height="33" as="geometry" />
        </mxCell>
        <mxCell id="1xs2wTyu8J6TD5JoGst9-240" value="" style="verticalLabelPosition=bottom;html=1;verticalAlign=top;align=center;shape=mxgraph.floorplan.office_chair;strokeWidth=1;rotation=90;" vertex="1" parent="1">
          <mxGeometry x="1825" y="1205.75" width="30" height="33" as="geometry" />
        </mxCell>
        <mxCell id="1xs2wTyu8J6TD5JoGst9-241" value="" style="verticalLabelPosition=bottom;html=1;verticalAlign=top;align=center;shape=mxgraph.floorplan.office_chair;strokeWidth=1;rotation=90;" vertex="1" parent="1">
          <mxGeometry x="1878.0299999999997" y="1205.75" width="30" height="33" as="geometry" />
        </mxCell>
        <mxCell id="1xs2wTyu8J6TD5JoGst9-242" value="" style="verticalLabelPosition=bottom;html=1;verticalAlign=top;align=center;shape=mxgraph.floorplan.office_chair;strokeWidth=1;rotation=90;" vertex="1" parent="1">
          <mxGeometry x="1928.0299999999997" y="1205.75" width="30" height="33" as="geometry" />
        </mxCell>
        <mxCell id="1xs2wTyu8J6TD5JoGst9-243" value="" style="verticalLabelPosition=bottom;html=1;verticalAlign=top;align=center;shape=mxgraph.floorplan.office_chair;strokeWidth=1;rotation=90;" vertex="1" parent="1">
          <mxGeometry x="1981.06" y="1205.75" width="30" height="33" as="geometry" />
        </mxCell>
        <mxCell id="1xs2wTyu8J6TD5JoGst9-244" value="" style="verticalLabelPosition=bottom;html=1;verticalAlign=top;align=center;shape=mxgraph.floorplan.office_chair;strokeWidth=1;rotation=90;" vertex="1" parent="1">
          <mxGeometry x="1825" y="1255.75" width="30" height="33" as="geometry" />
        </mxCell>
        <mxCell id="1xs2wTyu8J6TD5JoGst9-245" value="" style="verticalLabelPosition=bottom;html=1;verticalAlign=top;align=center;shape=mxgraph.floorplan.office_chair;strokeWidth=1;rotation=90;" vertex="1" parent="1">
          <mxGeometry x="1878.0299999999997" y="1255.75" width="30" height="33" as="geometry" />
        </mxCell>
        <mxCell id="1xs2wTyu8J6TD5JoGst9-246" value="" style="verticalLabelPosition=bottom;html=1;verticalAlign=top;align=center;shape=mxgraph.floorplan.office_chair;strokeWidth=1;rotation=90;" vertex="1" parent="1">
          <mxGeometry x="1928.0299999999997" y="1255.75" width="30" height="33" as="geometry" />
        </mxCell>
        <mxCell id="1xs2wTyu8J6TD5JoGst9-247" value="" style="verticalLabelPosition=bottom;html=1;verticalAlign=top;align=center;shape=mxgraph.floorplan.office_chair;strokeWidth=1;rotation=90;" vertex="1" parent="1">
          <mxGeometry x="1981.06" y="1255.75" width="30" height="33" as="geometry" />
        </mxCell>
        <mxCell id="1xs2wTyu8J6TD5JoGst9-248" value="" style="verticalLabelPosition=bottom;html=1;verticalAlign=top;align=center;shape=mxgraph.floorplan.office_chair;strokeWidth=1;rotation=90;" vertex="1" parent="1">
          <mxGeometry x="1825" y="1305.75" width="30" height="33" as="geometry" />
        </mxCell>
        <mxCell id="1xs2wTyu8J6TD5JoGst9-249" value="" style="verticalLabelPosition=bottom;html=1;verticalAlign=top;align=center;shape=mxgraph.floorplan.office_chair;strokeWidth=1;rotation=90;" vertex="1" parent="1">
          <mxGeometry x="1878.0299999999997" y="1305.75" width="30" height="33" as="geometry" />
        </mxCell>
        <mxCell id="1xs2wTyu8J6TD5JoGst9-250" value="" style="verticalLabelPosition=bottom;html=1;verticalAlign=top;align=center;shape=mxgraph.floorplan.office_chair;strokeWidth=1;rotation=90;" vertex="1" parent="1">
          <mxGeometry x="1928.0299999999997" y="1305.75" width="30" height="33" as="geometry" />
        </mxCell>
        <mxCell id="1xs2wTyu8J6TD5JoGst9-251" value="" style="verticalLabelPosition=bottom;html=1;verticalAlign=top;align=center;shape=mxgraph.floorplan.office_chair;strokeWidth=1;rotation=90;" vertex="1" parent="1">
          <mxGeometry x="1981.06" y="1305.75" width="30" height="33" as="geometry" />
        </mxCell>
        <mxCell id="1xs2wTyu8J6TD5JoGst9-252" value="" style="verticalLabelPosition=bottom;html=1;verticalAlign=top;align=center;shape=mxgraph.floorplan.office_chair;strokeWidth=1;rotation=90;" vertex="1" parent="1">
          <mxGeometry x="1825" y="1355.75" width="30" height="33" as="geometry" />
        </mxCell>
        <mxCell id="1xs2wTyu8J6TD5JoGst9-253" value="" style="verticalLabelPosition=bottom;html=1;verticalAlign=top;align=center;shape=mxgraph.floorplan.office_chair;strokeWidth=1;rotation=90;" vertex="1" parent="1">
          <mxGeometry x="1878.0299999999997" y="1355.75" width="30" height="33" as="geometry" />
        </mxCell>
        <mxCell id="1xs2wTyu8J6TD5JoGst9-254" value="" style="verticalLabelPosition=bottom;html=1;verticalAlign=top;align=center;shape=mxgraph.floorplan.office_chair;strokeWidth=1;rotation=90;" vertex="1" parent="1">
          <mxGeometry x="1928.0299999999997" y="1355.75" width="30" height="33" as="geometry" />
        </mxCell>
        <mxCell id="1xs2wTyu8J6TD5JoGst9-255" value="" style="verticalLabelPosition=bottom;html=1;verticalAlign=top;align=center;shape=mxgraph.floorplan.office_chair;strokeWidth=1;rotation=90;" vertex="1" parent="1">
          <mxGeometry x="1981.06" y="1355.75" width="30" height="33" as="geometry" />
        </mxCell>
        <mxCell id="1xs2wTyu8J6TD5JoGst9-256" value="" style="verticalLabelPosition=bottom;html=1;verticalAlign=top;align=center;shape=mxgraph.floorplan.desk_corner_2;strokeWidth=1;" vertex="1" parent="1">
          <mxGeometry x="2023.5" y="1124.93" width="180" height="41.64" as="geometry" />
        </mxCell>
        <mxCell id="1xs2wTyu8J6TD5JoGst9-274" value="" style="verticalLabelPosition=bottom;html=1;verticalAlign=top;align=center;shape=mxgraph.floorplan.table;strokeWidth=1;rotation=90;" vertex="1" parent="1">
          <mxGeometry x="2123.5" y="1295.75" width="50" height="30" as="geometry" />
        </mxCell>
        <mxCell id="1xs2wTyu8J6TD5JoGst9-275" value="" style="verticalLabelPosition=bottom;html=1;verticalAlign=top;align=center;shape=mxgraph.floorplan.range_1;strokeWidth=1;rotation=90;" vertex="1" parent="1">
          <mxGeometry x="2123.5" y="1338.75" width="50" height="72" as="geometry" />
        </mxCell>
        <mxCell id="1xs2wTyu8J6TD5JoGst9-277" value="" style="verticalLabelPosition=bottom;html=1;verticalAlign=top;align=center;shape=mxgraph.floorplan.refrigerator;strokeWidth=1;rotation=90;" vertex="1" parent="1">
          <mxGeometry x="2236.97" y="1182.25" width="46.53" height="39.45" as="geometry" />
        </mxCell>
        <mxCell id="1xs2wTyu8J6TD5JoGst9-278" value="" style="verticalLabelPosition=bottom;html=1;verticalAlign=top;align=center;shape=mxgraph.floorplan.refrigerator;strokeWidth=1;rotation=90;" vertex="1" parent="1">
          <mxGeometry x="2236.97" y="1234.5" width="46.53" height="39.45" as="geometry" />
        </mxCell>
        <mxCell id="1xs2wTyu8J6TD5JoGst9-279" value="" style="verticalLabelPosition=bottom;html=1;verticalAlign=top;align=center;shape=mxgraph.floorplan.doorOverhead;strokeWidth=1;" vertex="1" parent="1">
          <mxGeometry x="2096.5" y="1245.75" width="104" height="20" as="geometry" />
        </mxCell>
        <mxCell id="1xs2wTyu8J6TD5JoGst9-280" value="" style="rounded=0;whiteSpace=wrap;html=1;strokeWidth=1;rotation=90;" vertex="1" parent="1">
          <mxGeometry x="1919.56" y="1271.69" width="242.75" height="34.88" as="geometry" />
        </mxCell>
        <mxCell id="1xs2wTyu8J6TD5JoGst9-281" value="" style="verticalLabelPosition=bottom;html=1;verticalAlign=top;align=center;shape=mxgraph.floorplan.sink_double;strokeWidth=1;rotation=-90;" vertex="1" parent="1">
          <mxGeometry x="2011.06" y="1295.75" width="60" height="30" as="geometry" />
        </mxCell>
        <mxCell id="1xs2wTyu8J6TD5JoGst9-282" value="" style="verticalLabelPosition=bottom;html=1;verticalAlign=top;align=center;shape=mxgraph.floorplan.windowGlider;dx=0.25;strokeWidth=1;" vertex="1" parent="1">
          <mxGeometry x="2071.06" y="1114.93" width="122.44" height="10" as="geometry" />
        </mxCell>
        <mxCell id="1xs2wTyu8J6TD5JoGst9-284" value="" style="verticalLabelPosition=bottom;html=1;verticalAlign=top;align=center;shape=mxgraph.floorplan.wall;fillColor=#000000;strokeWidth=1;" vertex="1" parent="1">
          <mxGeometry x="441.61" y="375.75" width="1361.89" height="10" as="geometry" />
        </mxCell>
        <mxCell id="1xs2wTyu8J6TD5JoGst9-285" value="" style="verticalLabelPosition=bottom;html=1;verticalAlign=top;align=center;shape=mxgraph.floorplan.doorDouble;aspect=fixed;strokeWidth=1;" vertex="1" parent="1">
          <mxGeometry x="1935.2600000000002" y="235.75" width="188.24" height="100" as="geometry" />
        </mxCell>
        <mxCell id="1xs2wTyu8J6TD5JoGst9-286" value="" style="verticalLabelPosition=bottom;html=1;verticalAlign=top;align=center;shape=mxgraph.floorplan.plant;strokeWidth=1;" vertex="1" parent="1">
          <mxGeometry x="493.5" y="235.75" width="140" height="130" as="geometry" />
        </mxCell>
        <mxCell id="1xs2wTyu8J6TD5JoGst9-287" value="" style="verticalLabelPosition=bottom;html=1;verticalAlign=top;align=center;shape=mxgraph.floorplan.plant;strokeWidth=1;" vertex="1" parent="1">
          <mxGeometry x="661.61" y="235.75" width="140" height="130" as="geometry" />
        </mxCell>
        <mxCell id="1xs2wTyu8J6TD5JoGst9-288" value="" style="verticalLabelPosition=bottom;html=1;verticalAlign=top;align=center;shape=mxgraph.floorplan.plant;strokeWidth=1;" vertex="1" parent="1">
          <mxGeometry x="870.47" y="235.75" width="140" height="130" as="geometry" />
        </mxCell>
        <mxCell id="1xs2wTyu8J6TD5JoGst9-289" value="" style="verticalLabelPosition=bottom;html=1;verticalAlign=top;align=center;shape=mxgraph.floorplan.plant;strokeWidth=1;" vertex="1" parent="1">
          <mxGeometry x="1052.56" y="235.75" width="140" height="130" as="geometry" />
        </mxCell>
        <mxCell id="1xs2wTyu8J6TD5JoGst9-290" value="" style="verticalLabelPosition=bottom;html=1;verticalAlign=top;align=center;shape=mxgraph.floorplan.plant;strokeWidth=1;" vertex="1" parent="1">
          <mxGeometry x="1390.47" y="235.75" width="140" height="130" as="geometry" />
        </mxCell>
        <mxCell id="1xs2wTyu8J6TD5JoGst9-291" value="" style="verticalLabelPosition=bottom;html=1;verticalAlign=top;align=center;shape=mxgraph.floorplan.plant;strokeWidth=1;" vertex="1" parent="1">
          <mxGeometry x="1217.55" y="235.75" width="140" height="130" as="geometry" />
        </mxCell>
        <mxCell id="1xs2wTyu8J6TD5JoGst9-293" value="" style="edgeStyle=orthogonalEdgeStyle;rounded=0;orthogonalLoop=1;jettySize=auto;html=1;" edge="1" parent="1" source="1xs2wTyu8J6TD5JoGst9-292" target="1xs2wTyu8J6TD5JoGst9-290">
          <mxGeometry relative="1" as="geometry" />
        </mxCell>
        <mxCell id="1xs2wTyu8J6TD5JoGst9-292" value="" style="verticalLabelPosition=bottom;html=1;verticalAlign=top;align=center;shape=mxgraph.floorplan.plant;strokeWidth=1;" vertex="1" parent="1">
          <mxGeometry x="1581.61" y="235.75" width="140" height="130" as="geometry" />
        </mxCell>
        <mxCell id="1xs2wTyu8J6TD5JoGst9-294" value="" style="verticalLabelPosition=bottom;html=1;verticalAlign=top;align=center;shape=mxgraph.floorplan.room;fillColor=#000000;strokeWidth=1;" vertex="1" parent="1">
          <mxGeometry x="533.5" y="375.75" width="1580" height="660" as="geometry" />
        </mxCell>
        <mxCell id="1xs2wTyu8J6TD5JoGst9-295" value="" style="verticalLabelPosition=bottom;html=1;verticalAlign=top;align=center;shape=mxgraph.floorplan.wall;fillColor=#000000;direction=south;strokeWidth=1;" vertex="1" parent="1">
          <mxGeometry x="1311.61" y="375.75" width="10" height="660" as="geometry" />
        </mxCell>
        <mxCell id="1xs2wTyu8J6TD5JoGst9-296" value="" style="ellipse;whiteSpace=wrap;html=1;aspect=fixed;strokeWidth=7;" vertex="1" parent="1">
          <mxGeometry x="1261.61" y="645.75" width="110" height="110" as="geometry" />
        </mxCell>
        <mxCell id="1xs2wTyu8J6TD5JoGst9-297" value="" style="verticalLabelPosition=bottom;html=1;verticalAlign=top;align=center;shape=mxgraph.floorplan.wallU;fillColor=#000000;strokeWidth=1;rotation=-90;" vertex="1" parent="1">
          <mxGeometry x="2013.5" y="670.75" width="120" height="60" as="geometry" />
        </mxCell>
        <mxCell id="1xs2wTyu8J6TD5JoGst9-298" value="" style="verticalLabelPosition=bottom;html=1;verticalAlign=top;align=center;shape=mxgraph.floorplan.wallU;fillColor=#000000;strokeWidth=1;rotation=90;" vertex="1" parent="1">
          <mxGeometry x="513.5" y="670.75" width="120" height="60" as="geometry" />
        </mxCell>
        <mxCell id="1xs2wTyu8J6TD5JoGst9-299" value="" style="verticalLabelPosition=bottom;html=1;verticalAlign=top;align=center;shape=mxgraph.floorplan.room;fillColor=#000000;strokeWidth=1;" vertex="1" parent="1">
          <mxGeometry x="343.5" y="1027.75" width="2030" height="100" as="geometry" />
        </mxCell>
        <mxCell id="1xs2wTyu8J6TD5JoGst9-300" value="" style="rounded=0;whiteSpace=wrap;html=1;strokeWidth=7;rotation=90;" vertex="1" parent="1">
          <mxGeometry x="1919" y="696.25" width="413" height="20" as="geometry" />
        </mxCell>
        <mxCell id="1xs2wTyu8J6TD5JoGst9-306" value="" style="verticalLabelPosition=bottom;html=1;verticalAlign=top;align=center;shape=mxgraph.floorplan.chair;shadow=0;strokeWidth=7;" vertex="1" parent="1">
          <mxGeometry x="2160.5" y="775.75" width="30" height="32" as="geometry" />
        </mxCell>
        <mxCell id="1xs2wTyu8J6TD5JoGst9-307" value="" style="verticalLabelPosition=bottom;html=1;verticalAlign=top;align=center;shape=mxgraph.floorplan.chair;shadow=0;direction=west;strokeWidth=7;" vertex="1" parent="1">
          <mxGeometry x="2160.5" y="835.75" width="30" height="32" as="geometry" />
        </mxCell>
        <mxCell id="1xs2wTyu8J6TD5JoGst9-308" value="" style="verticalLabelPosition=bottom;html=1;verticalAlign=top;align=center;shape=mxgraph.floorplan.chair;shadow=0;direction=north;strokeWidth=7;" vertex="1" parent="1">
          <mxGeometry x="2128.5" y="805.75" width="32" height="30" as="geometry" />
        </mxCell>
        <mxCell id="1xs2wTyu8J6TD5JoGst9-309" value="" style="verticalLabelPosition=bottom;html=1;verticalAlign=top;align=center;shape=mxgraph.floorplan.chair;shadow=0;direction=south;strokeWidth=7;" vertex="1" parent="1">
          <mxGeometry x="2188.5" y="805.75" width="32" height="30" as="geometry" />
        </mxCell>
        <mxCell id="1xs2wTyu8J6TD5JoGst9-310" value="" style="shape=ellipse;shadow=0;strokeWidth=7;" vertex="1" parent="1">
          <mxGeometry x="2140.5" y="785.75" width="70" height="70" as="geometry" />
        </mxCell>
        <mxCell id="1xs2wTyu8J6TD5JoGst9-311" value="" style="verticalLabelPosition=bottom;html=1;verticalAlign=top;align=center;shape=mxgraph.floorplan.chair;shadow=0;strokeWidth=7;" vertex="1" parent="1">
          <mxGeometry x="2165.5" y="660.25" width="30" height="32" as="geometry" />
        </mxCell>
        <mxCell id="1xs2wTyu8J6TD5JoGst9-312" value="" style="verticalLabelPosition=bottom;html=1;verticalAlign=top;align=center;shape=mxgraph.floorplan.chair;shadow=0;direction=west;strokeWidth=7;" vertex="1" parent="1">
          <mxGeometry x="2165.5" y="720.25" width="30" height="32" as="geometry" />
        </mxCell>
        <mxCell id="1xs2wTyu8J6TD5JoGst9-313" value="" style="verticalLabelPosition=bottom;html=1;verticalAlign=top;align=center;shape=mxgraph.floorplan.chair;shadow=0;direction=north;strokeWidth=7;" vertex="1" parent="1">
          <mxGeometry x="2133.5" y="690.25" width="32" height="30" as="geometry" />
        </mxCell>
        <mxCell id="1xs2wTyu8J6TD5JoGst9-314" value="" style="verticalLabelPosition=bottom;html=1;verticalAlign=top;align=center;shape=mxgraph.floorplan.chair;shadow=0;direction=south;strokeWidth=7;" vertex="1" parent="1">
          <mxGeometry x="2193.5" y="690.25" width="32" height="30" as="geometry" />
        </mxCell>
        <mxCell id="1xs2wTyu8J6TD5JoGst9-315" value="" style="shape=ellipse;shadow=0;strokeWidth=7;" vertex="1" parent="1">
          <mxGeometry x="2145.5" y="670.25" width="70" height="70" as="geometry" />
        </mxCell>
        <mxCell id="1xs2wTyu8J6TD5JoGst9-316" value="" style="verticalLabelPosition=bottom;html=1;verticalAlign=top;align=center;shape=mxgraph.floorplan.chair;shadow=0;strokeWidth=7;" vertex="1" parent="1">
          <mxGeometry x="2160.5" y="545.75" width="30" height="32" as="geometry" />
        </mxCell>
        <mxCell id="1xs2wTyu8J6TD5JoGst9-317" value="" style="verticalLabelPosition=bottom;html=1;verticalAlign=top;align=center;shape=mxgraph.floorplan.chair;shadow=0;direction=west;strokeWidth=7;" vertex="1" parent="1">
          <mxGeometry x="2160.5" y="605.75" width="30" height="32" as="geometry" />
        </mxCell>
        <mxCell id="1xs2wTyu8J6TD5JoGst9-318" value="" style="verticalLabelPosition=bottom;html=1;verticalAlign=top;align=center;shape=mxgraph.floorplan.chair;shadow=0;direction=north;strokeWidth=7;" vertex="1" parent="1">
          <mxGeometry x="2128.5" y="575.75" width="32" height="30" as="geometry" />
        </mxCell>
        <mxCell id="1xs2wTyu8J6TD5JoGst9-319" value="" style="verticalLabelPosition=bottom;html=1;verticalAlign=top;align=center;shape=mxgraph.floorplan.chair;shadow=0;direction=south;strokeWidth=7;" vertex="1" parent="1">
          <mxGeometry x="2193.5" y="575.75" width="27" height="30" as="geometry" />
        </mxCell>
        <mxCell id="1xs2wTyu8J6TD5JoGst9-320" value="" style="shape=ellipse;shadow=0;strokeWidth=7;" vertex="1" parent="1">
          <mxGeometry x="2140.5" y="555.75" width="70" height="70" as="geometry" />
        </mxCell>
        <mxCell id="1xs2wTyu8J6TD5JoGst9-322" value="z" style="verticalLabelPosition=bottom;html=1;verticalAlign=top;align=center;shape=mxgraph.floorplan.stairsRest;strokeWidth=1;rotation=90;" vertex="1" parent="1">
          <mxGeometry x="197.76" y="1157" width="300" height="200" as="geometry" />
        </mxCell>
        <mxCell id="1xs2wTyu8J6TD5JoGst9-323" value="" style="endArrow=classic;html=1;rounded=0;entryX=0.575;entryY=0.732;entryDx=0;entryDy=0;entryPerimeter=0;" edge="1" parent="1">
          <mxGeometry width="50" height="50" relative="1" as="geometry">
            <mxPoint x="293.49999999999955" y="1105.75" as="sourcePoint" />
            <mxPoint x="293.5700000000011" y="1248.25" as="targetPoint" />
          </mxGeometry>
        </mxCell>
        <mxCell id="1xs2wTyu8J6TD5JoGst9-324" value="" style="endArrow=classic;html=1;rounded=0;entryX=0.715;entryY=0.464;entryDx=0;entryDy=0;entryPerimeter=0;exitX=-0.026;exitY=0.464;exitDx=0;exitDy=0;exitPerimeter=0;" edge="1" parent="1" source="1xs2wTyu8J6TD5JoGst9-325" target="1xs2wTyu8J6TD5JoGst9-325">
          <mxGeometry width="50" height="50" relative="1" as="geometry">
            <mxPoint x="2423.4999999999995" y="1114.93" as="sourcePoint" />
            <mxPoint x="2423.570000000001" y="1257.43" as="targetPoint" />
          </mxGeometry>
        </mxCell>
        <mxCell id="1xs2wTyu8J6TD5JoGst9-325" value="" style="verticalLabelPosition=bottom;html=1;verticalAlign=top;align=center;shape=mxgraph.floorplan.stairs;strokeWidth=4;rotation=-90;" vertex="1" parent="1">
          <mxGeometry x="2212.89" y="1188.59" width="230" height="84.77" as="geometry" />
        </mxCell>
        <mxCell id="1xs2wTyu8J6TD5JoGst9-326" value="" style="verticalLabelPosition=bottom;html=1;verticalAlign=top;align=center;shape=mxgraph.floorplan.room;fillColor=#000000;strokeWidth=1;" vertex="1" parent="1">
          <mxGeometry x="2310" y="360.25" width="270" height="300" as="geometry" />
        </mxCell>
        <mxCell id="1xs2wTyu8J6TD5JoGst9-327" value="" style="verticalLabelPosition=bottom;html=1;verticalAlign=top;align=center;shape=mxgraph.floorplan.doorRight;aspect=fixed;direction=west;" vertex="1" parent="1">
          <mxGeometry x="2323.5" y="600" width="50.48" height="53.63" as="geometry" />
        </mxCell>
        <mxCell id="1xs2wTyu8J6TD5JoGst9-405" value="" style="verticalLabelPosition=bottom;html=1;verticalAlign=top;align=center;shape=mxgraph.floorplan.room;fillColor=#000000;strokeWidth=1;" vertex="1" parent="1">
          <mxGeometry x="2580" y="360.75" width="270" height="300" as="geometry" />
        </mxCell>
        <mxCell id="1xs2wTyu8J6TD5JoGst9-406" value="" style="verticalLabelPosition=bottom;html=1;verticalAlign=top;align=center;shape=mxgraph.floorplan.doorRight;aspect=fixed;direction=west;" vertex="1" parent="1">
          <mxGeometry x="2593.5" y="600.5" width="50.48" height="53.63" as="geometry" />
        </mxCell>
        <mxCell id="1xs2wTyu8J6TD5JoGst9-407" value="" style="verticalLabelPosition=bottom;html=1;verticalAlign=top;align=center;shape=mxgraph.floorplan.office_chair;shadow=0;strokeWidth=1;rotation=-90;" vertex="1" parent="1">
          <mxGeometry x="2603" y="431.29999999999995" width="38.74" height="36.5" as="geometry" />
        </mxCell>
        <mxCell id="1xs2wTyu8J6TD5JoGst9-408" value="" style="shape=rect;shadow=0;strokeWidth=1;rotation=-90;" vertex="1" parent="1">
          <mxGeometry x="2602" y="431.29999999999995" width="68.11" height="40.63" as="geometry" />
        </mxCell>
        <mxCell id="1xs2wTyu8J6TD5JoGst9-409" value="" style="verticalLabelPosition=bottom;html=1;verticalAlign=top;align=center;shape=mxgraph.floorplan.office_chair;strokeWidth=1;rotation=90;" vertex="1" parent="1">
          <mxGeometry x="2651.5" y="400.75" width="30" height="33" as="geometry" />
        </mxCell>
        <mxCell id="1xs2wTyu8J6TD5JoGst9-410" value="" style="verticalLabelPosition=bottom;html=1;verticalAlign=top;align=center;shape=mxgraph.floorplan.office_chair;strokeWidth=1;rotation=90;" vertex="1" parent="1">
          <mxGeometry x="2704.5299999999997" y="400.75" width="30" height="33" as="geometry" />
        </mxCell>
        <mxCell id="1xs2wTyu8J6TD5JoGst9-411" value="" style="verticalLabelPosition=bottom;html=1;verticalAlign=top;align=center;shape=mxgraph.floorplan.office_chair;strokeWidth=1;rotation=90;" vertex="1" parent="1">
          <mxGeometry x="2754.5299999999997" y="400.75" width="30" height="33" as="geometry" />
        </mxCell>
        <mxCell id="1xs2wTyu8J6TD5JoGst9-412" value="" style="verticalLabelPosition=bottom;html=1;verticalAlign=top;align=center;shape=mxgraph.floorplan.office_chair;strokeWidth=1;rotation=90;" vertex="1" parent="1">
          <mxGeometry x="2807.56" y="400.75" width="30" height="33" as="geometry" />
        </mxCell>
        <mxCell id="1xs2wTyu8J6TD5JoGst9-413" value="" style="verticalLabelPosition=bottom;html=1;verticalAlign=top;align=center;shape=mxgraph.floorplan.office_chair;strokeWidth=1;rotation=90;" vertex="1" parent="1">
          <mxGeometry x="2651.5" y="450.75" width="30" height="33" as="geometry" />
        </mxCell>
        <mxCell id="1xs2wTyu8J6TD5JoGst9-414" value="" style="verticalLabelPosition=bottom;html=1;verticalAlign=top;align=center;shape=mxgraph.floorplan.office_chair;strokeWidth=1;rotation=90;" vertex="1" parent="1">
          <mxGeometry x="2704.5299999999997" y="450.75" width="30" height="33" as="geometry" />
        </mxCell>
        <mxCell id="1xs2wTyu8J6TD5JoGst9-415" value="" style="verticalLabelPosition=bottom;html=1;verticalAlign=top;align=center;shape=mxgraph.floorplan.office_chair;strokeWidth=1;rotation=90;" vertex="1" parent="1">
          <mxGeometry x="2754.5299999999997" y="450.75" width="30" height="33" as="geometry" />
        </mxCell>
        <mxCell id="1xs2wTyu8J6TD5JoGst9-416" value="" style="verticalLabelPosition=bottom;html=1;verticalAlign=top;align=center;shape=mxgraph.floorplan.office_chair;strokeWidth=1;rotation=90;" vertex="1" parent="1">
          <mxGeometry x="2807.56" y="450.75" width="30" height="33" as="geometry" />
        </mxCell>
        <mxCell id="1xs2wTyu8J6TD5JoGst9-417" value="" style="verticalLabelPosition=bottom;html=1;verticalAlign=top;align=center;shape=mxgraph.floorplan.office_chair;strokeWidth=1;rotation=90;" vertex="1" parent="1">
          <mxGeometry x="2651.5" y="500.75" width="30" height="33" as="geometry" />
        </mxCell>
        <mxCell id="1xs2wTyu8J6TD5JoGst9-418" value="" style="verticalLabelPosition=bottom;html=1;verticalAlign=top;align=center;shape=mxgraph.floorplan.office_chair;strokeWidth=1;rotation=90;" vertex="1" parent="1">
          <mxGeometry x="2704.5299999999997" y="500.75" width="30" height="33" as="geometry" />
        </mxCell>
        <mxCell id="1xs2wTyu8J6TD5JoGst9-419" value="" style="verticalLabelPosition=bottom;html=1;verticalAlign=top;align=center;shape=mxgraph.floorplan.office_chair;strokeWidth=1;rotation=90;" vertex="1" parent="1">
          <mxGeometry x="2754.5299999999997" y="500.75" width="30" height="33" as="geometry" />
        </mxCell>
        <mxCell id="1xs2wTyu8J6TD5JoGst9-420" value="" style="verticalLabelPosition=bottom;html=1;verticalAlign=top;align=center;shape=mxgraph.floorplan.office_chair;strokeWidth=1;rotation=90;" vertex="1" parent="1">
          <mxGeometry x="2807.56" y="500.75" width="30" height="33" as="geometry" />
        </mxCell>
        <mxCell id="1xs2wTyu8J6TD5JoGst9-421" value="" style="verticalLabelPosition=bottom;html=1;verticalAlign=top;align=center;shape=mxgraph.floorplan.office_chair;strokeWidth=1;rotation=90;" vertex="1" parent="1">
          <mxGeometry x="2651.5" y="550.75" width="30" height="33" as="geometry" />
        </mxCell>
        <mxCell id="1xs2wTyu8J6TD5JoGst9-422" value="" style="verticalLabelPosition=bottom;html=1;verticalAlign=top;align=center;shape=mxgraph.floorplan.office_chair;strokeWidth=1;rotation=90;" vertex="1" parent="1">
          <mxGeometry x="2704.5299999999997" y="550.75" width="30" height="33" as="geometry" />
        </mxCell>
        <mxCell id="1xs2wTyu8J6TD5JoGst9-423" value="" style="verticalLabelPosition=bottom;html=1;verticalAlign=top;align=center;shape=mxgraph.floorplan.office_chair;strokeWidth=1;rotation=90;" vertex="1" parent="1">
          <mxGeometry x="2754.5299999999997" y="550.75" width="30" height="33" as="geometry" />
        </mxCell>
        <mxCell id="1xs2wTyu8J6TD5JoGst9-424" value="" style="verticalLabelPosition=bottom;html=1;verticalAlign=top;align=center;shape=mxgraph.floorplan.office_chair;strokeWidth=1;rotation=90;" vertex="1" parent="1">
          <mxGeometry x="2807.56" y="550.75" width="30" height="33" as="geometry" />
        </mxCell>
        <mxCell id="1xs2wTyu8J6TD5JoGst9-425" value="" style="verticalLabelPosition=bottom;html=1;verticalAlign=top;align=center;shape=mxgraph.floorplan.office_chair;strokeWidth=1;rotation=90;" vertex="1" parent="1">
          <mxGeometry x="2651.5" y="600.75" width="30" height="33" as="geometry" />
        </mxCell>
        <mxCell id="1xs2wTyu8J6TD5JoGst9-426" value="" style="verticalLabelPosition=bottom;html=1;verticalAlign=top;align=center;shape=mxgraph.floorplan.office_chair;strokeWidth=1;rotation=90;" vertex="1" parent="1">
          <mxGeometry x="2704.5299999999997" y="600.75" width="30" height="33" as="geometry" />
        </mxCell>
        <mxCell id="1xs2wTyu8J6TD5JoGst9-427" value="" style="verticalLabelPosition=bottom;html=1;verticalAlign=top;align=center;shape=mxgraph.floorplan.office_chair;strokeWidth=1;rotation=90;" vertex="1" parent="1">
          <mxGeometry x="2754.5299999999997" y="600.75" width="30" height="33" as="geometry" />
        </mxCell>
        <mxCell id="1xs2wTyu8J6TD5JoGst9-428" value="" style="verticalLabelPosition=bottom;html=1;verticalAlign=top;align=center;shape=mxgraph.floorplan.office_chair;strokeWidth=1;rotation=90;" vertex="1" parent="1">
          <mxGeometry x="2807.56" y="600.75" width="30" height="33" as="geometry" />
        </mxCell>
        <mxCell id="1xs2wTyu8J6TD5JoGst9-429" value="" style="verticalLabelPosition=bottom;html=1;verticalAlign=top;align=center;shape=mxgraph.floorplan.wallU;fillColor=#000000;strokeWidth=4;" vertex="1" parent="1">
          <mxGeometry x="2440" y="530" width="140" height="124.13" as="geometry" />
        </mxCell>
        <mxCell id="1xs2wTyu8J6TD5JoGst9-430" value="" style="verticalLabelPosition=bottom;html=1;verticalAlign=top;align=center;shape=mxgraph.floorplan.wallU;fillColor=#000000;strokeWidth=4;rotation=90;" vertex="1" parent="1">
          <mxGeometry x="2327.3" y="354.52" width="113.12" height="135.6" as="geometry" />
        </mxCell>
        <mxCell id="1xs2wTyu8J6TD5JoGst9-432" value="" style="verticalLabelPosition=bottom;html=1;verticalAlign=top;align=center;shape=mxgraph.floorplan.office_chair;shadow=0;strokeWidth=1;rotation=0;" vertex="1" parent="1">
          <mxGeometry x="2490.62" y="596.2499999999999" width="38.74" height="36.5" as="geometry" />
        </mxCell>
        <mxCell id="1xs2wTyu8J6TD5JoGst9-433" value="" style="shape=rect;shadow=0;strokeWidth=1;rotation=0;" vertex="1" parent="1">
          <mxGeometry x="2475.94" y="606.6199999999999" width="68.11" height="40.63" as="geometry" />
        </mxCell>
        <mxCell id="1xs2wTyu8J6TD5JoGst9-434" value="" style="verticalLabelPosition=bottom;html=1;verticalAlign=top;align=center;shape=mxgraph.floorplan.office_chair;shadow=0;strokeWidth=1;rotation=0;" vertex="1" parent="1">
          <mxGeometry x="2475.93" y="365.7499999999999" width="38.74" height="36.5" as="geometry" />
        </mxCell>
        <mxCell id="1xs2wTyu8J6TD5JoGst9-435" value="" style="shape=rect;shadow=0;strokeWidth=1;rotation=0;" vertex="1" parent="1">
          <mxGeometry x="2461.25" y="376.1199999999999" width="68.11" height="40.63" as="geometry" />
        </mxCell>
        <mxCell id="1xs2wTyu8J6TD5JoGst9-436" value="" style="verticalLabelPosition=bottom;html=1;verticalAlign=top;align=center;shape=mxgraph.floorplan.office_chair;shadow=0;strokeWidth=1;rotation=-180;" vertex="1" parent="1">
          <mxGeometry x="2364.49" y="433.7599999999999" width="38.74" height="36.5" as="geometry" />
        </mxCell>
        <mxCell id="1xs2wTyu8J6TD5JoGst9-437" value="" style="shape=rect;shadow=0;strokeWidth=1;rotation=0;" vertex="1" parent="1">
          <mxGeometry x="2349.8" y="416.7499999999999" width="68.11" height="40.63" as="geometry" />
        </mxCell>
        <mxCell id="1xs2wTyu8J6TD5JoGst9-443" value="" style="verticalLabelPosition=bottom;html=1;verticalAlign=top;align=center;shape=mxgraph.floorplan.doorRight;aspect=fixed;strokeWidth=4;rotation=-90;" vertex="1" parent="1">
          <mxGeometry x="2449.65" y="483.82" width="42.35" height="45" as="geometry" />
        </mxCell>
        <mxCell id="1xs2wTyu8J6TD5JoGst9-444" value="" style="verticalLabelPosition=bottom;html=1;verticalAlign=top;align=center;shape=mxgraph.floorplan.doorRight;aspect=fixed;strokeWidth=4;rotation=-90;" vertex="1" parent="1">
          <mxGeometry x="2449.94" y="538.21" width="46.23" height="49.12" as="geometry" />
        </mxCell>
        <mxCell id="1xs2wTyu8J6TD5JoGst9-445" value="" style="verticalLabelPosition=bottom;html=1;verticalAlign=top;align=center;shape=mxgraph.floorplan.doorRight;aspect=fixed;strokeWidth=4;rotation=-180;" vertex="1" parent="1">
          <mxGeometry x="2322.14" y="427.05" width="42.35" height="45" as="geometry" />
        </mxCell>
      </root>
    </mxGraphModel>
  </diagram>
</mxfile>
